<svg xmlns="http://www.w3.org/2000/svg" xmlns:xlink="http://www.w3.org/1999/xlink" version="1.1" id="Layer_1" x="0px" y="0px" width="555px" height="165px" xml:space="preserve">
<defs xmlns="http://www.w3.org/2000/svg">
    <linearGradient id="grad2" x1="0%" y1="0%" x2="0%" y2="100%">
      <stop offset="0%" style="stop-color:#000000;stop-opacity:1"/>
      <stop offset="100%" style="stop-color:#466C8C;stop-opacity:1"/>
    </linearGradient>
  </defs>
  <g xmlns="http://www.w3.org/2000/svg" fill-rule="monzero" clip-rule="monzero">
    <path d="M28.952 17.158c167.995-.002 335.993-.002 503.992-.004.002 50.328.002 100.66.004 150.992-167.996.002-335.993.002-503.992.004-.002-50.33-.002-100.66-.004-150.992zm276.791 104.826c17.465 0 34.604.023 51.743-.014 6.176-.014 7.28-1.129 7.286-7.311.021-29.32.023-58.641-.002-87.961-.005-6.23-1.102-7.363-7.236-7.365-51.144-.023-102.287-.021-153.431-.004-6.095.002-7.3 1.199-7.307 7.352-.029 29.32-.028 58.639-.001 87.959.006 6.127 1.218 7.32 7.321 7.332 15.493.033 30.986.012 46.479.012h5.492c-1.203 9.303-1.944 17.863-9.945 23.633-3.335 2.406-6.227 5.586-8.795 8.83-1.449 1.83-2.835 4.75-2.354 6.713.332 1.354 3.844 2.211 6.064 2.732 1.895.443 3.977.092 5.976.092 24.155 0 48.312.08 72.467-.119 2.483-.021 4.953-1.699 7.431-2.609-1.115-2.557-1.858-5.381-3.444-7.602-1.814-2.541-4.131-4.889-6.662-6.721-8.375-6.062-10.741-14.717-11.082-24.949zm185.712-62.338c0-11.488.029-22.271-.012-33.053-.023-6.303-1.117-7.432-7.148-7.434-30.311-.016-60.621-.018-90.931 0-6.199.004-7.238 1.063-7.24 7.283-.012 43.633-.011 87.268-.001 130.9.001 6.816.858 7.637 7.882 7.637 43.3.008 86.6.006 129.9.002 7.254-.002 8.041-.779 8.043-7.99.006-29.811.006-59.621 0-89.432-.002-7.033-.877-7.895-8.146-7.908-10.476-.021-20.952-.005-32.347-.005zM31.58 164.929h144.812V20.554H31.58v144.375z" fill="transparent"/>
    <path d="M305.743 121.984c.342 10.232 2.707 18.887 11.082 24.949 2.531 1.832 4.848 4.18 6.662 6.721 1.586 2.221 2.329 5.045 3.444 7.602-2.478.91-4.947 2.588-7.431 2.609-24.155.199-48.312.119-72.467.119-1.999 0-4.081.352-5.976-.092-2.221-.521-5.732-1.379-6.064-2.732-.481-1.963.904-4.883 2.354-6.713 2.568-3.244 5.46-6.424 8.795-8.83 8.001-5.77 8.742-14.33 9.945-23.633h-5.492c-15.492 0-30.985.021-46.479-.012-6.104-.012-7.315-1.205-7.321-7.332-.027-29.32-.028-58.639.001-87.959.007-6.152 1.212-7.35 7.307-7.352 51.144-.018 102.287-.02 153.431.004 6.135.002 7.231 1.135 7.236 7.365.025 29.32.023 58.641.002 87.961-.006 6.182-1.11 7.297-7.286 7.311-17.14.037-34.278.014-51.743.014zM206.392 28.97v83.344h148.562V28.97H206.392zm103.939 125.385c-4.414-6.617-9.162-9.957-16.931-9.225-8.736.822-17.677.852-26.406-.008-7.847-.773-11.5 3.836-16.242 9.232 20.219.001 39.556.001 59.579.001zm-14.586-32.061h-29.893c-.889 4.619-1.728 8.982-2.572 13.373h34.97c-.862-4.603-1.651-8.812-2.505-13.373zM491.455 59.646c11.395 0 21.871-.016 32.346.006 7.27.014 8.145.875 8.146 7.908.006 29.811.006 59.621 0 89.432-.002 7.211-.789 7.988-8.043 7.99-43.3.004-86.6.006-129.9-.002-7.023 0-7.881-.82-7.882-7.637-.01-43.633-.011-87.268.001-130.9.002-6.221 1.041-7.279 7.24-7.283 30.311-.018 60.62-.016 90.931 0 6.031.002 7.125 1.131 7.148 7.434.042 10.781.013 21.564.013 33.052zm-8.639 80.787V27.683h-88.322v112.75h88.322zm8.948 16.275h31.666V68.343h-31.666v88.365zm-47.089-4.029c-2.942-1.795-4.608-3.596-6.204-3.535-1.25.047-3.393 2.436-3.344 3.715.051 1.336 2.241 3.605 3.514 3.619 1.576.014 3.17-1.875 6.034-3.799zM31.58 164.929V20.554h144.812v144.375H31.58zm9.708-134.56v125.463h125.446V30.369H41.288z" fill="url(#grad2)"/>
    <path d="M206.392 28.97h148.562v83.344H206.392V28.97zM310.331 154.355h-59.579c4.742-5.396 8.396-10.006 16.242-9.232 8.729.859 17.67.83 26.406.008 7.768-.733 12.517 2.607 16.931 9.224zM295.745 122.294c.854 4.561 1.644 8.77 2.505 13.373h-34.97c.845-4.391 1.684-8.754 2.572-13.373h29.893zM482.816 140.433h-88.322V27.683h88.322v112.75zm-44.298-31.838c-16.497-2.609-25.697-13.857-23.617-28.506 1.82-12.814 14.258-21.721 27.748-20.012 9.426 1.193 21.436 11.475 19.762 23.709-1.574.131-3.196.266-5.437.453 3.444 6.025 6.688 11.699 10.254 17.936 3.595-6.32 6.764-11.893 10.163-17.871-2.443-.232-4.2-.398-5.895-.561-2.918-26.471-23.563-34.072-38.791-31.422-16.973 2.953-28.121 19.064-25.688 37.027 2.047 15.098 17.125 27.836 31.5 26.359.001-2.233.001-4.499.001-7.112zM491.764 156.708V68.343h31.666v88.365h-31.666zM444.675 152.679c-2.864 1.924-4.458 3.813-6.034 3.799-1.272-.014-3.463-2.283-3.514-3.619-.049-1.279 2.094-3.668 3.344-3.715 1.596-.061 3.262 1.74 6.204 3.535zM41.288 30.369h125.446v125.463H41.288V30.369zm15.726 88.269c-.277.115-.554.23-.831.346-.783-6.863-1.566-13.727-2.346-20.561h-7.07c.115 2.07.111 3.869.331 5.643 1.186 9.57 2.496 19.127 3.626 28.703.844 7.145.752 7.154 8.52 5.785 1.006-6.969 2.028-14.039 3.049-21.109 1.65 5.195 2.416 10.404 3.248 15.602 1.049 6.551 1.072 6.547 8.522 5.664 1.615-13.309 3.243-26.721 4.9-40.373H71.7c-.792 6.727-1.57 13.33-2.349 19.936-1.686-5.072-2.804-10.08-3.053-15.131-.224-4.547-1.886-5.99-6.491-4.473-.917 6.554-1.855 13.261-2.793 19.968zm49.317 20.24c1.493.129 2.312.254 3.132.26 3.326.021 6.657.121 9.977-.02 6.395-.27 10.07-2.873 11.366-7.83 1.703-6.518.094-10.896-5.504-14.691 4.586-2.447 5.473-6.506 4.483-11.047-1.036-4.752-4.66-6.768-9.154-7.021-4.579-.258-9.183-.057-13.999-.057-.112 1.338-.286 2.471-.288 3.604-.021 12.115-.013 24.23-.013 36.802zm.724-56.736c4.197 0 7.833.027 11.469-.018.986-.014 1.977-.207 2.953-.389 6.464-1.209 9.017-3.676 9.369-10.244.354-6.619.294-13.279.021-19.906-.18-4.363-1.847-8.541-6.676-9.35-5.598-.938-11.348-.967-17.342-1.412 0 13.32-.004 25.59.007 37.857 0 .966.107 1.931.199 3.462zm-5.623-20.986c-.416-4.354-.381-8.744-1.342-12.902-1.318-5.705-5.392-7.734-12.942-7.344-5.906.305-9.804 2.887-10.163 8.271-.551 8.271-.567 16.635.012 24.9.387 5.516 4.481 8.133 10.655 8.334 7.227.238 11.184-1.82 12.392-7.42.972-4.503.962-9.218 1.388-13.839zM70.951 55.9c1.632-9.01-1.436-14.24-8.596-14.932-9.767-.943-14.422 2.859-14.637 12.225-.141 6.145-.086 12.301.091 18.445.141 4.889 2.206 8.701 7.167 10.27 10.956 3.463 18.197-3.086 15.946-14.58h-8.114c0 2.068.391 3.986-.127 5.613-.396 1.246-1.94 2.127-2.973 3.172-.955-.947-2.707-1.869-2.737-2.844-.238-7.791-.267-15.598-.008-23.387.031-.936 2.083-2.289 3.354-2.498.658-.107 2.107 1.758 2.399 2.93.419 1.684.107 3.551.107 5.586h8.128zm12.777 42.473v40.557h17.971v-5.691c-3.116-.139-6.031-.271-9.177-.412v-12.264c2.359-.215 4.449-.406 6.725-.613v-5.529c-2.389-.203-4.482-.381-6.741-.572v-9.365c3.164-.145 6.073-.277 9.192-.422v-5.688c-6.018-.001-11.794-.001-17.97-.001zm71.019-16.487v-5.635c-3.04-.148-5.795-.283-8.714-.426V63.509c2.535-.219 4.614-.396 6.939-.598-.094-2.102-.172-3.824-.25-5.539-2.586-.193-4.681-.348-6.847-.508v-9.316c3.17-.211 6.06-.404 9.205-.613-.111-2.125-.2-3.842-.285-5.469h-17.751v40.42h17.703z" fill="#BBF2E2"/>
    
    <path d="M438.518 108.595v7.113c-14.375 1.477-29.453-11.262-31.5-26.359-2.434-17.963 8.715-34.074 25.688-37.027 15.229-2.65 35.873 4.951 38.791 31.422 1.694.162 3.451.328 5.895.561-3.399 5.979-6.568 11.551-10.163 17.871-3.565-6.236-6.81-11.91-10.254-17.936 2.24-.188 3.862-.322 5.437-.453 1.674-12.234-10.336-22.516-19.762-23.709-13.49-1.709-25.928 7.197-27.748 20.012-2.081 14.648 7.119 25.896 23.616 28.505zM57.014 118.638c.938-6.707 1.876-13.414 2.793-19.969 4.605-1.518 6.268-.074 6.491 4.473.249 5.051 1.367 10.059 3.053 15.131.778-6.605 1.556-13.209 2.349-19.936h7.263c-1.657 13.652-3.285 27.064-4.9 40.373-7.45.883-7.473.887-8.522-5.664-.832-5.197-1.598-10.406-3.248-15.602-1.021 7.07-2.043 14.141-3.049 21.109-7.768 1.369-7.676 1.359-8.52-5.785-1.131-9.576-2.44-19.133-3.626-28.703-.219-1.773-.216-3.572-.331-5.643h7.07c.78 6.834 1.563 13.697 2.346 20.561.276-.114.553-.23.831-.345zM106.331 138.878c0-12.572-.008-24.688.012-36.803.002-1.133.176-2.266.288-3.604 4.815 0 9.42-.201 13.999.057 4.495.254 8.118 2.27 9.154 7.021.99 4.541.103 8.6-4.483 11.047 5.598 3.795 7.208 8.174 5.504 14.691-1.295 4.957-4.971 7.561-11.366 7.83-3.32.141-6.651.041-9.977.02-.82-.005-1.639-.13-3.131-.259zm8.898-19.802c0 4.553-.167 7.361.077 10.133.108 1.232 1.135 3.432 1.591 3.393 1.642-.141 4.35-.754 4.602-1.721.702-2.703 1.013-5.875.198-8.457-.435-1.376-3.519-1.917-6.468-3.348zm.256-5.291c4.559 1.051 6.913-.545 6.725-4.861-.18-4.121-2.78-5.148-6.725-4.279v9.14zM107.055 82.142c-.091-1.531-.198-2.496-.199-3.461-.011-12.268-.007-24.537-.007-37.857 5.994.445 11.744.475 17.342 1.412 4.829.809 6.497 4.986 6.676 9.35.273 6.627.333 13.287-.021 19.906-.352 6.568-2.904 9.035-9.369 10.244-.976.182-1.967.375-2.953.389-3.636.044-7.272.017-11.469.017zm9.15-6.35c3.838.588 5.627-.939 5.627-4.564 0-6.484.039-12.971-.02-19.455-.034-3.773-2.135-4.725-5.607-4.039v28.058zM101.432 61.156c-.426 4.621-.416 9.336-1.388 13.84-1.208 5.6-5.165 7.658-12.392 7.42-6.174-.201-10.269-2.818-10.655-8.334-.579-8.266-.563-16.629-.012-24.9.359-5.385 4.257-7.967 10.163-8.271 7.55-.391 11.624 1.639 12.942 7.344.96 4.157.926 8.547 1.342 12.901zm-9.607.318c0-3.488.277-7.008-.136-10.445-.166-1.377-1.853-2.568-2.848-3.846-1.144 1.152-3.226 2.262-3.277 3.461-.315 7.287-.32 14.6-.027 21.889.05 1.234 2.045 2.393 3.142 3.586 1.044-1.229 2.834-2.371 2.989-3.703.418-3.604.143-7.29.157-10.942zM70.951 55.9h-8.128c0-2.035.312-3.902-.107-5.586-.292-1.172-1.741-3.037-2.399-2.93-1.271.209-3.323 1.563-3.354 2.498-.259 7.789-.23 15.596.008 23.387.03.975 1.782 1.896 2.737 2.844 1.033-1.045 2.577-1.926 2.973-3.172.518-1.627.127-3.545.127-5.613h8.114c2.251 11.494-4.99 18.043-15.946 14.58-4.961-1.568-7.025-5.381-7.167-10.27-.177-6.145-.232-12.301-.091-18.445.215-9.365 4.87-13.168 14.637-12.225 7.16.692 10.228 5.922 8.596 14.932zM83.728 98.373h17.971v5.688c-3.119.145-6.029.277-9.192.422v9.365c2.259.191 4.352.369 6.741.572v5.529c-2.275.207-4.365.398-6.725.613v12.264c3.146.141 6.061.273 9.177.412v5.691H83.729c-.001-13.414-.001-26.779-.001-40.556zM154.747 81.886h-17.702v-40.42h17.751c.084 1.627.174 3.344.285 5.469-3.146.209-6.035.402-9.205.613v9.316c2.167.16 4.261.314 6.847.508.078 1.715.155 3.438.25 5.539-2.325.201-4.404.379-6.939.598v12.316c2.918.143 5.674.277 8.714.426-.001 1.918-.001 3.639-.001 5.635z" fill="url(#grad2)"/><path d="M115.229 119.076c2.949 1.432 6.033 1.973 6.467 3.348.815 2.582.503 5.754-.198 8.457-.251.967-2.96 1.58-4.602 1.721-.456.039-1.483-2.16-1.591-3.393-.243-2.772-.076-5.581-.076-10.133zM115.485 113.785v-9.141c3.945-.869 6.544.158 6.725 4.279.188 4.317-2.166 5.912-6.725 4.862zM116.205 75.792V47.733c3.472-.686 5.573.266 5.607 4.039.059 6.484.02 12.971.02 19.455 0 3.626-1.789 5.153-5.627 4.565zM91.818 61.474c-.007 3.652.269 7.338-.151 10.941-.155 1.332-1.944 2.475-2.989 3.703-1.097-1.193-3.092-2.352-3.142-3.586-.293-7.289-.288-14.602.027-21.889.052-1.199 2.134-2.309 3.277-3.461.995 1.277 2.682 2.469 2.848 3.846.414 3.438.137 6.958.13 10.446z" fill="#BBF2E2"/>
  </g>
</svg>